<?xml version="1.0" encoding="utf-8"?>
<!-- Generator: Adobe Illustrator 25.2.1, SVG Export Plug-In . SVG Version: 6.00 Build 0)  -->
<svg version="1.1" id="Layer_1" xmlns="http://www.w3.org/2000/svg" xmlns:xlink="http://www.w3.org/1999/xlink" x="0px" y="0px"
	 viewBox="0 0 32 32" style="enable-background:new 0 0 32 32;" xml:space="preserve">
<style type="text/css">
	.st0{fill:#FFFFFF;}
</style>
<path class="st0" d="M4.7,0C2.9,0,2.2,0.7,2.2,2.5v22.1c0,0.2,0,0.4,0,0.6c0,0.4,0,0.8,0.4,1.2c0,0.1,0.4,0.3,0.4,0.3
	c0.2,0.1,0.3,0.2,0.6,0.3l11.1,4.7c0.6,0.3,0.8,0.4,1.2,0.4h0c0.4,0,0.7-0.1,1.2-0.4L28.3,27c0.2-0.1,0.4-0.2,0.6-0.3
	c0,0,0.4-0.3,0.4-0.3c0.4-0.4,0.4-0.8,0.4-1.2c0-0.2,0-0.4,0-0.6V2.5c0-1.8-0.7-2.5-2.5-2.5L4.7,0z M22.5,4.1h0.9
	c1.5,0,2.3,0.7,2.3,2.3v2.5h-1.8V6.5c0-0.5-0.2-0.7-0.7-0.7h-0.3c-0.5,0-0.7,0.2-0.7,0.7v7.7c0,0.5,0.2,0.7,0.7,0.7h0.3
	c0.5,0,0.7-0.2,0.7-0.7v-2.8h1.8v2.9c0,1.5-0.7,2.3-2.3,2.3h-0.9c-1.5,0-2.3-0.8-2.3-2.3V6.4C20.3,4.9,21,4.1,22.5,4.1L22.5,4.1z
	 M6.3,4.3h4.2V6H8.1v3.5h2.2v1.7H8.1v3.7h2.3v1.7H6.3L6.3,4.3z M11.4,4.3h2.9c1.5,0,2.3,0.8,2.3,2.3v3.3c0,1.5-0.8,2.3-2.3,2.3h-1.1
	v4.5h-1.9L11.4,4.3z M17.4,4.3h1.9v12.3h-1.9V4.3z M13.2,5.9v4.5H14c0.5,0,0.7-0.2,0.7-0.7V6.6c0-0.5-0.2-0.7-0.7-0.7L13.2,5.9z
	 M8.1,19.4h0.3l0.1,0h0.1l0.1,0h0.1l0,0l0.1,0l0,0l0.1,0l0.1,0l0,0l0,0l0.1,0l0,0l0.1,0l0,0l0,0l0,0l0,0l0.1,0l0,0l0,0l0,0l0,0l0,0
	L9.7,20l0,0l0,0l0,0l0,0l0,0l0,0l0,0l0,0l0,0l0,0l0,0l0,0l0,0l0,0l0,0l0,0l0,0l0,0l0,0l0,0l0,0l-0.1-0.1l0,0l0,0l0,0l0,0l0,0l-0.1,0
	l-0.1,0l0,0l0,0l-0.1,0l-0.1,0H8.3l-0.1,0H8.2l-0.1,0H8l-0.1,0l0,0l0,0l0,0l0,0l-0.1,0l-0.1,0.1l0,0l0,0l0,0l0,0l0,0l0,0l-0.1,0.1
	l0,0l0,0l0,0l0,0l0,0l0,0l0,0.1l0,0.1l0,0l0,0.1v0.1l0,0.1v0.1l0,0.1v0l0,0.1l0,0l0,0l0,0.1l0,0l0,0l0,0.1l0,0.1l0,0L7.4,22l0,0l0,0
	l0,0l0,0l0,0l0.1,0.1l0,0l0,0l0,0l0.1,0l0,0l0.1,0l0,0l0.1,0l0.1,0h0.2l0.1,0h0l0.1,0l0.1,0l0.1,0l0,0l0,0l0,0l0,0l0,0l0,0v-0.5H8.1
	V21h1.7v1.7l0,0l0,0l0,0l0,0l0,0l0,0l-0.1,0.1l-0.1,0L9.4,23l-0.1,0l0,0l0,0l-0.1,0l0,0l-0.1,0l0,0l0,0l-0.1,0l0,0l-0.2,0l0,0
	l-0.1,0l-0.1,0l-0.1,0l-0.1,0H8.1l-0.1,0H8l-0.1,0h0l-0.1,0l-0.2,0l0,0l0,0l-0.1,0l-0.1,0l-0.1,0l-0.1,0l0,0l-0.1,0l0,0l-0.1,0l0,0
	l0,0l-0.1-0.1l0,0l0,0l0,0l-0.1-0.1l0,0l0,0l0,0l0,0l0,0l0,0l0,0l0,0l0,0l0,0l0,0l0,0l0,0l0-0.1l0,0l0,0l0,0l0,0l0-0.1l0,0l0-0.1
	l0,0l0-0.1l0-0.1l0-0.1v-0.3l0-0.1v-0.1l0-0.1V21l0,0l0-0.1l0-0.1l0-0.1l0,0l0.1-0.1l0,0l0,0l0,0l0,0l0,0l0.1-0.1l0,0l0,0l0,0
	l0.1-0.1l0,0l0,0l0,0l0,0l0.1-0.1l0,0l0,0l0,0l0,0l0,0l0,0l0.1,0l0,0l0.1,0l0,0l0,0l0,0l0.1,0l0,0l0,0l0,0l0.1,0l0,0l0.1,0h0.1l0,0
	h0.1L8.1,19.4L8.1,19.4L8.1,19.4z M24.1,19.4h0.3l0.1,0h0.1l0.1,0h0.1l0.1,0l0.1,0l0.1,0l0,0l0.1,0l0,0l0,0l0,0l0.1,0l0,0l0.1,0l0,0
	l0,0l0,0l0,0l0,0l0,0l0,0l0,0l0.1,0.1l0,0l0,0l0,0l0,0l0,0l0,0l0,0l0,0l0,0l0,0l0,0l0,0l0,0l0,0l0,0l0,0l0,0l0,0l0,0l0,0l0,0l0,0
	l0,0l0,0l0,0l0,0l-0.1,0l0,0l0,0l-0.1,0l-0.1,0l-0.2,0l-0.1,0l-0.1,0h-0.1l-0.1,0l-0.1,0l0,0l0,0l0,0l0,0l0,0l0,0v0.1l0,0.1l0,0l0,0
	l0.1,0l0,0l0,0l0.1,0l0.1,0l0,0l0,0l0.1,0l0,0l0,0l0.1,0l0.1,0l0.1,0l0.1,0l0,0l0.1,0l0.1,0l0,0l0.2,0l0,0l0.1,0l0,0l0.1,0l0.1,0
	l0,0l0.1,0.1l0.1,0.1l0,0l0,0l0,0l0,0l0,0l0,0.1l0,0l0,0.1l0,0l0,0.1l0,0l0,0l0,0.1l0,0.1l0,0v0.1l0,0.1l0,0.1l0,0.1l0,0l0,0.1
	l0,0.1l0,0l0,0l0,0l0,0l0,0l-0.1,0.1l-0.1,0.1l0,0l0,0l0,0l0,0l0,0l0,0l0,0l-0.1,0l-0.1,0l0,0l-0.1,0l0,0l0,0l-0.1,0l0,0l-0.1,0
	h-0.1l0,0h-0.1l-0.1,0h-0.4l-0.2,0l-0.1,0l0,0l-0.1,0l-0.1,0l0,0l-0.1,0l-0.1,0l0,0l-0.1,0l-0.1,0l0,0l-0.1,0l-0.1,0l0,0l-0.1,0l0,0
	l-0.1,0l0,0l0,0l-0.1,0l0,0l0,0l0,0l0,0l0,0l0,0l0,0l0,0l0,0l0,0l0,0l0,0l0,0l0,0l0,0l0,0l0,0l0,0l0,0l0,0l0,0l0,0l0,0l0,0l0,0l0,0
	l0,0l0,0l0.1,0l0,0l0,0l0,0l0,0l0,0l0,0l0.1,0l0,0l0,0l0,0l0.1,0l0,0l0.1,0l0.1,0l0,0l0.1,0h0.1l0,0h0.3l0,0l0.1,0l0,0l0,0l0,0l0,0
	l0,0l0,0l0,0v-0.1l0,0l0,0l0,0l0,0l0,0l0,0l-0.1,0l-0.1,0l0,0l0,0l-0.1,0l0,0l-0.1,0l-0.1,0l-0.1,0l-0.1,0l-0.1,0l0,0l-0.1,0l-0.1,0
	l-0.1,0l0,0l-0.1,0l0,0l-0.1,0l-0.1,0l-0.1,0l-0.1,0l0,0l-0.1,0l0,0l0,0l0,0l0,0l-0.1-0.1l0,0L23,21.2l0,0l0,0l0,0l0,0l0-0.1l0-0.1
	l0,0v0l0-0.1v-0.2l0-0.1l0,0l0,0l0,0l0-0.1l0,0l0-0.1l0,0l0-0.1l0,0l0,0l0,0l0,0l0,0l0,0l0,0l0,0l0,0l0.1-0.1l0,0l0.1,0l0,0l0,0
	l0.1,0l0.1,0l0,0l0,0l0,0l0,0l0.1,0L24.1,19.4L24.1,19.4L24.1,19.4z M11.8,19.5h0.9l0,0.1l0,0l0,0.1l0,0l0,0l0,0l0,0.1l0,0l0,0.1
	l0,0l0.1,0.2l0,0l0,0l0,0l0,0l0,0.1l0,0l0,0.1l0,0l0,0.1l0,0.1l0,0l0,0.1l0,0l0,0.1l0,0l0,0.1l0,0.1l0,0l0,0l0,0l0,0l0,0.1l0,0l0,0
	l0,0.1l0,0l0,0l0,0l0,0l0,0l0,0l0,0l0,0.1l0,0.1l0,0l0,0l0,0.1l0,0.1l0,0l0,0.1l0,0l0,0.1l0,0.1l0,0l0,0.1l0,0l0,0.1l0,0l0,0.1l0,0
	l0,0.1l0,0l0,0.1l0,0l0,0l0,0l0,0h-1l0,0l0,0l0,0l0-0.1l0,0l0-0.1l0,0l0-0.1l0,0l0-0.1l0-0.1l0,0h-1.4l0,0l0,0l0,0.1l0,0l0,0l0,0.1
	l0,0l0,0l0,0l0,0.1l0,0l0,0.1l0,0.1l0,0l0,0.1h-1l0,0l0-0.1l0-0.1l0,0l0,0l0,0l0,0l0,0l0-0.1l0,0l0,0l0-0.1l0-0.1l0,0l0,0l0,0
	l0.1-0.1l0-0.1l0,0l0,0l0,0l0-0.1l0,0l0,0l0-0.1l0,0l0-0.1l0,0l0,0l0-0.1l0,0l0-0.1l0,0l0-0.1l0-0.1l0,0l0-0.1l0,0l0-0.1l0,0l0-0.1
	l0-0.1l0,0l0,0l0,0l0,0l0,0l0-0.1l0,0l0,0l0-0.1l0,0l0-0.1l0,0l0-0.1l0,0l0-0.1l0,0l0,0l0-0.1l0,0l0-0.1l0,0l0,0l0-0.1l0,0l0-0.1
	l0,0l0-0.1l0-0.1L11.8,19.5L11.8,19.5L11.8,19.5z M14.7,19.5h1l0,0l0.1,0.1l0,0l0,0l0,0l0,0l0,0l0,0l0,0l0,0l0,0l0,0l0,0l0,0l0,0
	l0,0l0,0l0,0l0,0l0,0l0,0l0.1,0.1l0,0l0,0l0,0l0,0l0.1,0.1l0,0l0,0l0,0l0-0.1l0,0l0,0l0,0l0-0.1l0,0l0,0l0,0l0,0l0,0l0,0l0-0.1l0,0
	l0,0l0,0l0-0.1l0,0l0,0l0-0.1l0,0l0,0l0,0l0-0.1l0,0l0,0l0-0.1l0,0l0,0l0,0l0-0.1l0,0l0,0l0,0h1v3.7h-1V21l0,0l0,0.1l0,0l0,0l0,0.1
	l0,0l0,0l0,0.1l-0.1,0.1l0,0l0,0.1l0,0l0,0l0,0.1l0,0l0,0l0,0.1l0,0l0,0l0,0l0,0l0,0l0,0l0,0l0,0l0,0l0,0l0,0l0,0l0,0.1l0,0l0,0
	l0,0.1l0,0h0l0,0l0,0l0,0l0,0l0,0l0,0l0,0l0,0l0,0l0,0l0,0l0,0l0,0l0,0l0,0l0,0l0-0.1l0,0l0,0l0,0l0,0l0,0l0,0l0,0l0,0l0,0l0,0l0,0
	l0,0l0,0l0,0l0,0l0,0l0,0v2.2h-1L14.7,19.5L14.7,19.5z M19.3,19.5h2.9v0.8h-2v0.6H22v0.8h-1.8v0.6h2v0.8h-3L19.3,19.5L19.3,19.5z
	 M12.2,20.7L12.2,20.7L12.2,20.7l-0.1,0.1l0,0l0,0l0,0.1l0,0.1l0,0l0,0.1l0,0l0,0.1l0,0.1l0,0l0,0.1l0,0l0,0.1l0,0l0,0l0,0.1l0,0
	l0,0l0,0.1h0.9l0-0.1l0,0l0-0.1l0,0l0,0l0-0.1l0,0l0,0l0,0l0,0l0-0.1l0,0l0-0.1l0,0l0,0l0-0.1l0,0L12.2,20.7L12.2,20.7L12.2,20.7z
	 M10.7,27.6h10.7l-5.5,1.8L10.7,27.6z"/>
</svg>
