<?xml version="1.0" encoding="utf-8"?>
<!-- Generator: Adobe Illustrator 25.2.1, SVG Export Plug-In . SVG Version: 6.00 Build 0)  -->
<svg version="1.1" id="Layer_1" xmlns="http://www.w3.org/2000/svg" xmlns:xlink="http://www.w3.org/1999/xlink" x="0px" y="0px"
	 viewBox="0 0 448 512" style="enable-background:new 0 0 448 512;" xml:space="preserve">
<style type="text/css">
	.st0{fill:#FFFFFF;}
</style>
<path class="st0" d="M95.9,33.5c-44.6,8-80.5,41-91.8,84.4C0,133.6-0.3,142.8,0.2,264.4C0.4,376,0.5,378.6,2.4,387.3
	c10.3,46.5,43.3,79.6,90.3,90.5c6.1,1.4,13.9,1.7,64.1,1.9c51.9,0.4,57.3,0.3,58.7-1.1s1.5-19.3,1.5-222.2
	c0-150.5-0.3-221.3-0.9-222.6c-0.9-1.7-2.5-1.8-56.9-1.7C115,32.2,101.7,32.5,95.9,33.5L95.9,33.5z M179.8,256.1V444l-37.8-0.5
	c-34.8-0.4-38.5-0.6-45.5-2.3c-29.9-7.7-52-30.7-58.3-60.7c-2-9.4-2-240.1-0.1-249.3c5.6-26.1,23.7-47.7,48-57.4
	c12.2-4.9,17.9-5.5,57.6-5.6l35.9-0.1v188H179.8z M103.9,124.9c-5.8,1.1-14.7,5.6-19.5,9.7c-9.7,8.4-14.6,20.4-13.8,34.5
	c0.4,7.3,0.8,9.3,3.8,15.2c4.4,9,10.9,15.6,19.9,20c6.2,3.1,7.8,3.4,15.9,3.7c7.3,0.3,9.9,0,14.8-1.7c20.1-6.8,32.3-26.3,28.8-46.4
	C149.9,136.2,127.2,120.2,103.9,124.9L103.9,124.9z M262.1,32.6c-0.4,0.3-0.6,100.8-0.6,223.5c0,202.3,0.1,222.8,1.5,223.4
	c2.5,0.9,74.5,0.6,83.4-0.4c37.7-4.3,71-27.2,89-61.2c2.3-4.4,5.4-11.7,7-16.2c5.8-17.4,5.7-12.8,5.7-146.1
	c0-106.4-0.2-122.3-1.5-129c-9.2-48.3-46.1-84.8-94.5-93.1c-6.5-1.1-16.5-1.4-48.8-1.4C280.9,32,262.4,32.3,262.1,32.6L262.1,32.6z
	 M361.2,234.7c14.5,3.8,26.3,14.8,31.2,28.9c3.1,8.7,3,21.5-0.1,29.5c-5.7,14.7-16.8,25-31.1,28.8c-23.2,6-47.9-8-54.6-31
	c-2-7-1.9-18.9,0.4-26.2C313.9,242,338,228.6,361.2,234.7L361.2,234.7z"/>
</svg>
